<?xml version="1.0" standalone="no"?>
<!DOCTYPE svg PUBLIC "-//W3C//DTD SVG 20010904//EN"
 "http://www.w3.org/TR/2001/REC-SVG-20010904/DTD/svg10.dtd">
<svg version="1.0" xmlns="http://www.w3.org/2000/svg"
 width="1024.000000pt" height="1024.000000pt" viewBox="0 0 1024.000000 1024.000000"
 preserveAspectRatio="xMidYMid meet">
<metadata>
Created by potrace 1.14, written by Peter Selinger 2001-2017
</metadata>
<g transform="translate(0.000000,1024.000000) scale(0.100000,-0.100000)"
fill="#000000" stroke="none">
<path d="M3255 9890 c-11 -5 -69 -30 -130 -55 -702 -295 -1341 -758 -1870
-1356 -52 -59 -245 -302 -281 -354 -19 -27 -59 -86 -90 -130 -70 -101 -210
-329 -254 -415 -19 -36 -43 -78 -54 -95 -12 -16 -21 -32 -20 -35 0 -3 -29 -68
-66 -145 -167 -349 -316 -794 -384 -1145 -2 -14 -9 -47 -15 -75 -6 -27 -12
-63 -15 -80 -2 -16 -9 -59 -14 -95 -17 -105 -21 -134 -27 -196 -4 -32 -8 -70
-10 -83 -26 -156 -26 -860 0 -1012 2 -13 6 -49 9 -79 3 -30 8 -73 11 -95 12
-81 27 -181 31 -205 3 -14 7 -38 9 -55 3 -16 7 -39 9 -50 2 -11 12 -54 20 -95
16 -71 49 -201 96 -375 33 -121 135 -403 208 -570 117 -271 285 -582 433 -802
l35 -52 225 148 c357 235 592 390 758 500 85 56 160 100 166 97 7 -2 24 -28
40 -58 107 -208 329 -471 540 -640 305 -243 757 -445 1160 -517 33 -6 69 -13
80 -15 11 -2 45 -7 75 -11 30 -4 63 -9 72 -10 127 -24 689 -24 814 -1 10 2 46
7 79 11 120 13 402 77 470 105 11 5 53 20 93 35 40 15 119 50 176 79 390 198
610 473 674 846 9 54 10 308 1 365 -46 292 -172 492 -409 647 -96 63 -308 175
-455 240 -218 98 -449 183 -910 338 -181 61 -359 121 -395 134 -374 138 -567
213 -768 302 -199 88 -404 192 -509 260 -29 19 -57 34 -62 34 -4 0 -16 9 -26
20 -10 11 -21 20 -26 20 -13 0 -151 98 -253 180 -85 69 -240 218 -316 305
-258 293 -449 718 -496 1100 -4 28 -8 52 -10 55 -17 31 -26 555 -11 695 12
114 27 228 37 265 5 19 11 49 14 65 28 164 110 409 199 595 28 58 51 107 51
110 6 26 184 309 255 405 44 59 56 74 136 171 211 256 523 523 849 728 82 52
100 68 51 46z"/>
<path d="M5817 8674 c-1 -1 -55 -4 -120 -8 -64 -4 -123 -8 -130 -11 -6 -2 -37
-6 -67 -9 -68 -7 -208 -31 -275 -46 -27 -6 -61 -14 -75 -16 -68 -13 -302 -99
-402 -149 -200 -99 -379 -254 -485 -420 -103 -162 -154 -364 -147 -590 8 -267
109 -477 299 -620 206 -156 678 -351 1265 -525 505 -149 725 -225 1060 -367
169 -72 483 -229 625 -313 142 -83 414 -267 445 -300 3 -3 25 -21 50 -40 296
-224 548 -542 691 -872 22 -51 44 -102 49 -113 57 -131 136 -458 156 -640 2
-22 6 -56 9 -75 10 -77 18 -252 18 -375 0 -125 -10 -365 -17 -402 -2 -10 -7
-45 -10 -78 -19 -170 -88 -461 -151 -636 -185 -515 -565 -1038 -1018 -1402
-53 -43 -97 -80 -97 -83 0 -3 19 6 43 19 23 14 76 44 117 67 145 83 443 275
486 315 6 5 22 17 34 25 78 51 321 253 439 365 73 69 285 283 330 335 94 106
250 302 334 420 54 74 100 140 105 145 21 28 152 242 209 344 58 103 174 336
230 461 83 185 233 621 258 748 1 9 8 37 15 62 7 25 14 56 16 70 3 14 7 32 10
40 8 22 40 191 58 300 15 92 21 135 31 230 3 25 7 59 10 75 26 181 27 864 1
1015 -3 14 -7 52 -10 85 -8 77 -15 133 -21 165 -3 14 -7 43 -11 65 -23 166
-94 478 -145 643 -70 226 -120 363 -220 602 -37 90 -222 448 -280 545 -31 50
-62 101 -70 114 -76 127 -371 531 -387 531 -4 0 -35 -17 -69 -38 -35 -20 -147
-87 -250 -148 -104 -61 -260 -154 -348 -206 -88 -52 -241 -143 -340 -202
l-180 -106 -15 22 c-112 165 -348 426 -470 518 -25 19 -47 37 -50 40 -33 37
-263 182 -362 228 -166 78 -400 145 -583 167 -27 3 -63 8 -80 10 -87 12 -497
27 -508 19z"/>
</g>
</svg>
